<svg xmlns="http://www.w3.org/2000/svg" xmlns:xlink="http://www.w3.org/1999/xlink" version="1.1" id="Layer_1" x="0px" y="0px" width="20px" height="215px" viewBox="0 0 20 215" enable-background="new 0 0 20 215" xml:space="preserve"><g><polygon fill="#6A6D70" points="4.6,150.8 17,150.8 20,142 6.8,142 6.8,144 17.2,144 15.6,148.9 6,148.9 3.9,141 0,141 0,143 2.4,143"/><circle fill="#6A6D70" cx="5.9" cy="153.7" r="2"/><circle fill="#6A6D70" cx="15.6" cy="153.7" r="2"/></g><g><polygon fill="#D54F4D" points="4.6,180.8 17,180.8 20,172 6.8,172 6.8,174 17.2,174 15.6,178.9 6,178.9 3.9,171 0,171 0,173 2.4,173"/><circle fill="#D54F4D" cx="5.9" cy="183.7" r="2"/><circle fill="#D54F4D" cx="15.6" cy="183.7" r="2"/></g><path fill="#6A6D70" d="M14.293 69.801c-1.696 0-3.292 0.799-4.291 2.099c-1.097-1.299-2.594-2.099-4.29-2.099 c-2.794 0-5.687 2.198-5.687 6.396c0 4.4 4.9 7.7 9.5 10.396c0.201 0.1 0.3 0.1 0.5 0.1 c0.198-0.032 0.4 0 0.499-0.099c4.59-2.799 9.478-6.098 9.478-10.396c-0.032-4.168-2.896-6.411-5.729-6.411 M10.002 84.7 c-3.092-1.899-7.98-4.997-7.98-8.496c0-3.098 1.895-4.498 3.69-4.498c1.497 0 2.8 0.9 3.4 2.4 c0.199 0.4 0.5 0.6 0.9 0.599c0.396 0 0.798-0.199 0.897-0.599c0.599-1.5 1.896-2.399 3.393-2.399 c1.795 0 3.7 1.4 3.7 4.498C17.983 79.7 13.1 82.8 10 84.7"/><path fill="#D34E4D" d="M14.293 99.801c-1.696 0-3.292 0.799-4.291 2.099c-1.097-1.299-2.594-2.099-4.29-2.099 c-2.794 0-5.687 2.198-5.687 6.396c0 4.4 4.9 7.7 9.5 10.396c0.201 0.1 0.3 0.1 0.5 0.1 c0.198-0.032 0.4 0 0.499-0.099c4.59-2.8 9.478-6.099 9.478-10.396c-0.032-4.168-2.896-6.411-5.729-6.411 M10.002 114.7 c-3.092-1.899-7.98-4.997-7.98-8.496c0-3.098 1.895-4.498 3.69-4.498c1.497 0 2.8 0.9 3.4 2.4 c0.199 0.4 0.5 0.6 0.9 0.599c0.396 0 0.798-0.199 0.897-0.599c0.599-1.5 1.896-2.399 3.393-2.399 c1.795 0 3.7 1.4 3.7 4.498C17.983 109.7 13.1 112.8 10 114.7"/><path fill="#434246" d="M15.666 14.091l-4.3-4.283c0.737-1.043 1.137-2.279 1.137-3.581c0-1.663-0.649-3.227-1.83-4.402 C9.492 0.6 7.9 0 6.3 0S3.016 0.6 1.8 1.825C0.654 3 0 4.6 0 6.197c0 1.7 0.7 3.2 1.8 4.4 c1.101 1.2 2.8 1.8 4.4 1.823c1.271 0 2.483-0.377 3.511-1.075l4.311 4.301c0.222 0.2 0.5 0.3 0.8 0.3 c0.289 0 0.576-0.109 0.796-0.328c0.485-0.452 0.481-1.152 0.082-1.559H15.666z M6.253 10.597c-1.168 0-2.267-0.453-3.093-1.275 C2.333 8.5 1.9 7.4 1.9 6.227c0-1.164 0.455-2.258 1.281-3.082c0.826-0.824 1.926-1.277 3.094-1.277s2.3 0.5 3.1 1.3 c0.825 0.8 1.3 1.9 1.3 3.1c0 1.165-0.454 2.259-1.28 3.083C8.521 10.1 7.4 10.6 6.3 10.587L6.253 10.597z"/><path fill="#FFFFFF" d="M15.666 44.091l-4.3-4.283c0.737-1.043 1.137-2.279 1.137-3.581c0-1.663-0.649-3.227-1.83-4.402 C9.492 30.6 7.9 30 6.3 30s-3.238 0.648-4.418 1.825C0.654 33 0 34.6 0 36.197c0 1.7 0.7 3.2 1.8 4.4 c1.101 1.2 2.8 1.8 4.4 1.823c1.271 0 2.483-0.377 3.511-1.075l4.311 4.301c0.222 0.2 0.5 0.3 0.8 0.3 c0.289 0 0.576-0.109 0.796-0.328c0.485-0.452 0.481-1.152 0.082-1.559H15.666z M6.253 40.597c-1.168 0-2.267-0.453-3.093-1.275 c-0.827-0.824-1.26-1.924-1.26-3.094c0-1.164 0.455-2.258 1.281-3.082c0.826-0.824 1.926-1.277 3.094-1.277s2.3 0.5 3.1 1.3 c0.825 0.8 1.3 1.9 1.3 3.1c0 1.165-0.454 2.259-1.28 3.083C8.521 40.1 7.4 40.6 6.3 40.587L6.253 40.597z"/></svg>