<svg xmlns="http://www.w3.org/2000/svg" viewBox="689.394 589.394 21.213 21.213"><path fill="#1E1E1E" d="M692.121 589.394h15.758c1.515 0 2.7 1.2 2.7 2.728v15.758c0 1.515-1.213 2.728-2.728 2.728h-15.758 c-1.515 0-2.728-1.213-2.728-2.728v-15.758C689.394 590.6 690.6 589.4 692.1 589.394L692.121 589.394z M704.849 591.8 c-0.455 0-0.909 0.454-0.909 0.909V595c0 0.5 0.5 0.9 0.9 0.909h2.424c0.455 0 0.909-0.454 0.909-0.909v-2.272 c0-0.455-0.454-0.909-0.909-0.909H704.849L704.849 591.818z M708.182 598.333h-1.818c0.152 0.6 0.3 1.2 0.3 1.8 c0 3.485-2.879 6.364-6.667 6.364c-3.637 0-6.667-2.879-6.667-6.364c0-0.605 0.151-1.212 0.304-1.818h-1.97v8.939 c0 0.5 0.5 0.9 0.9 0.909h14.848c0.455 0 0.909-0.454 0.909-0.909v-8.939H708.182z M700 595.8 c-2.424 0-4.242 1.818-4.242 4.091s1.97 4.1 4.2 4.091c2.424 0 4.242-1.818 4.242-4.091 C704.242 597.7 702.4 595.8 700 595.758z"/></svg>